# xmcd
#
# Track frame offsets:
#	225
#	16650
#	34684
#	52655
#	72860
#	89258
#	109920
#	127831
#	147173
#	166577
#	181648
#	198663
#	214899
#	231840
#
# Disc length: 3310 seconds
#
# Revision: 1
# Processed by: cddbd v1.5.1PL0 Copyright (c) Steve Scherf et al.
# Submitted via: audiograbber 1.83.01
#
DISCID=ae0ceb0e
DTITLE=Roland Kaiser - Roland Kaiser  Flieg mit mir zu den Sternen
DYEAR=1900
DGENRE=
TTITLE0=Ich glaub es geht schon wieder Los
TTITLE1=Mit dir kommt Leben in mein Leben
TTITLE2=Ein schöner Morgen
TTITLE3=Lieb mich ein letztes mal
TTITLE4=Manchmal möchte ich schon mit dir
TTITLE5=Einmal im Leben
TTITLE6=Wie soll ich Leben ohne Dich
TTITLE7=Kein Wort von Liebe
TTITLE8=Es kann der frömmste nicht in Frieden Leben
TTITLE9=Was hat er was Ich nicht hab
TTITLE10=Dann bist du da
TTITLE11=Wenn Sie auch kein Engel ist
TTITLE12=Ich will Dich
TTITLE13=Flieg mit mir zu den Sternen
EXTD=
EXTT0=
EXTT1=
EXTT2=
EXTT3=
EXTT4=
EXTT5=
EXTT6=
EXTT7=
EXTT8=
EXTT9=
EXTT10=
EXTT11=
EXTT12=
EXTT13=
PLAYORDER=
